<?xml version="1.0" encoding="UTF-8"?>
<svg version="1.1" viewBox="0 0 2000 2000" width="1280" height="1280" xmlns="http://www.w3.org/2000/svg">
<path transform="translate(891,215)" d="m0 0 10 1 8 3 14 11 15 15v2h2l7 8 32 32 7 8 62 62v2h2v2h2l7 8 9 12 4 11v12l-5 12-8 11-359 359-7 10-3 8v12l6 12 9 10 28 28 5 2 25-12 46-23 23-11 40-20 23-11 48-24 23-11 32-16 23-11 32-16 23-11 48-24 23-11 48-24 23-11 24-12 23-11 40-20 23-11 42-21 23-11 32-16 23-11 12-6 5-1-2 5-11 22-11 23-15 30-11 23-21 42-11 23-23 46-11 23-17 34-11 23-19 38-11 23-17 34-11 23-25 50-11 23-19 38-11 23-16 32-11 23-16 32-11 23-30 60-5 12 7 8 30 30 12 9 7 3 6-1 9-6 201-201 6-7 6-5 6-7 6-5 6-7 6-5 6-7 6-5 6-7 6-5 6-7 6-5 6-7 6-5 7-8 91-91 13-10 10-3h7l10 4 10 8 144 144 9 13 2 5v13l-4 9-8 12-11 12-622 622-11 9-14 7h-15l-8-3-9-7-10-9-811-811-10-13-6-12v-13l6-12 7-7 5-6 4-4h2l2-4h2l2-4h2l2-4h2l2-4h2l2-4h2l2-4h2l2-4h2l2-4h2l2-4h2l2-4h2l2-4h2l2-4h2l2-4h2l2-4h2l2-4h2l2-4h2l2-4h2l2-4h2l2-4h2l2-4h2l2-4 28-28h2l2-4 4-4h2l2-4h2l2-4h2l2-4 6-5 2-3h2l2-4h2l2-4h2l2-4h2l2-4 28-28h2l2-4h2l2-4 8-7 346-346 5-6 8-7 7-7 5-6 7-6 6-7 6-5 6-7 6-5 6-7h2l2-4 4-4h2l2-4 12-9z" fill="#50C3DE"/>
<path transform="translate(882,218)" d="m0 0 2 1-11 9-637 637-2-1 7-7 5-6 4-4h2l2-4h2l2-4h2l2-4h2l2-4h2l2-4h2l2-4h2l2-4h2l2-4h2l2-4h2l2-4h2l2-4h2l2-4h2l2-4h2l2-4h2l2-4h2l2-4h2l2-4h2l2-4h2l2-4h2l2-4h2l2-4 28-28h2l2-4 4-4h2l2-4h2l2-4h2l2-4 6-5 2-3h2l2-4h2l2-4h2l2-4h2l2-4 28-28h2l2-4h2l2-4 8-7 346-346 5-6 8-7 7-7 5-6 7-6 6-7 6-5 6-7 6-5 6-7h2l2-4 4-4h2l2-4z" fill="#B3E4F0"/>
<path transform="translate(919,228)" d="m0 0 4 2 15 15v2h2l7 8 32 32-1 2-46-46-7-8z" fill="#FEFEFE"/>
</svg>
