<?xml version="1.0" encoding="UTF-8"?>
<svg version="1.1" viewBox="0 0 2000 2000" width="1280" height="1280" xmlns="http://www.w3.org/2000/svg">
<path transform="translate(0)" d="m0 0h2e3v2e3h-2e3z" fill="#E81A36"/>
<path transform="translate(211,166)" d="m0 0h1212l16 2 10 6 8 10 3 8 2 16v96l-1 132-1 44-2 13-3 10-7 12-9 8-10 5-9 3-6 1-23 1-670 1-15 3-10 5-8 7-5 10-2 12v200l4 18 7 11 11 8 8 3 135 1h282l13 2 11 4 8 7 6 9 2 6 2 20v272l-2 16-6 12-8 7-9 3-5 1-14 1-417 1-10 3-9 6-6 7-2 4-1 7v232l2 13 4 6 8 5 11 2h730l17 2 11 4 8 6 7 10 3 11 1 8v274l-2 18-5 12-6 8-7 6-12 5-11 2-22 1h-1184l-25-2-13-4-9-6-6-7-5-10-3-13-1-16v-1551l2-19 5-12 7-10 7-5 10-3z" fill="#FEFEFE"/>
<path transform="translate(1577,195)" d="m0 0h51l5 3 13 17 12 17 26 36 10 14 26 36 7 9 2 1v-122l1-8 2-2 7-1h55l2 1 1 16v246l-2 7-2 2-11 1h-45l-7-3-12-15-13-18-13-17-10-14-12-16-13-18-12-16-14-19-5-7-3-1v138l-3 5-24 1h-28l-10-1-3-5-1-25v-190l1-48 2-3z" fill="#FEFEFE"/>
<path transform="translate(1665,1507)" d="m0 0 22 1 22 4 16 5 17 7 12 8 10 9 7 9v6l-11 9-18 13-14 10h-6l-11-9-9-7-9-4-9-2-19-1-15 2-10 4-6 6-1 9 4 7 8 5 21 6 54 14 19 7 13 8 11 9 8 10 8 16 4 14 1 8v11l-2 16-4 13-6 12-6 8-9 10-14 10-15 7-18 6-24 4h-42l-24-4-18-5-20-8-11-6-13-10-7-7-6-10-1-6 8-7 20-14 15-10 5-2 6 1 10 10 5 6 11 8 14 5 13 2h19l16-3 12-6 5-7v-9l-5-8-11-5-64-16-17-6-14-7-14-11-10-11-8-14-4-10-3-12v-19l4-17 8-16 9-11 10-10 14-9 15-7 17-5 17-3z" fill="#FEFEFE"/>
<path transform="translate(1577,1071)" d="m0 0h185l2 2v51l-2 5-3 2-113 1-6 1v46l68 1 10 1 1 1 1 7v38l-1 10-1 1-10 1-68 1-1 87-1 11-4 5-35 1h-31l-11-1-2-4-1-23v-220l1-23 1-1z" fill="#FEFEFE"/>
<path transform="translate(1560,635)" d="m0 0h68l7 2 5 6 16 29 15 27 14 25 1 3 3-1 9-15 7-14 6-10 6-12 12-22 8-14 4-3 5-1h60l6 2-1 5-5 10-16 26-13 21-8 13-10 16-26 42-9 15-2 7-1 107-3 6-3 2-23 1h-43l-9-1-2-2-1-6-1-104-7-14-15-24-16-26-17-28-13-21-11-18-10-17-3-9 2-2z" fill="#FEFEFE"/>
</svg>
