<?xml version="1.0" encoding="UTF-8"?>
<svg version="1.1" viewBox="0 0 2000 2000" width="1280" height="1280" xmlns="http://www.w3.org/2000/svg">
<path transform="translate(0)" d="m0 0h2e3v2e3h-2e3z" fill="#44DFD1"/>
<path transform="translate(415,1394)" d="m0 0h1171l27 3 28 6 19 6 16 6 16 8 20 11 20 14 13 12 8 7 4 4v2h2l7 8 15 20 11 18 9 17 8 20 6 19 5 25 1 9v56l-3 19-7 26-10 25-8 17-12 20-13 17-9 10-4 5h-2l-1 3-8 7-10 9-18 13-20 12-23 11-33 11-26 5-26 2h-1178l-25-2-20-4-15-4-20-7-16-7-16-8-16-10-13-10-14-12-10-9-7-8-11-13-12-17-10-18-10-21-10-30-5-26-1-9v-57l4-22 5-19 9-24 9-19 12-19 13-17 9-10 7-8 10-10 14-11 12-9 20-12 25-12 20-7 21-6 22-4z" fill="#E71935"/>
<path transform="translate(380,122)" d="m0 0h1196l26 4 24 6 30 10 17 8 17 10 14 10 10 8 10 9 9 8v2h2l7 8 11 14 11 17 7 11 9 19 5 11 7 22 4 17 4 25v43l-4 26-6 23-9 25-8 16-8 15-7 11-9 12-9 11-20 20-14 11-12 9-20 12-21 10-28 10-21 5-28 3-33 1h-1142l-27-1-23-3-20-5-21-7-21-9-20-11-17-12-11-9-10-9-8-7-7-8-11-13-10-14-10-17-8-15-10-26-5-18-4-20-2-15-1-15v-20l2-20 5-25 7-24 8-19 10-19 12-19 10-13 9-10 7-8 8-8 8-7 17-13 19-12 16-8 11-5 27-9 25-6z" fill="#E71935"/>
<path transform="translate(835,814)" d="m0 0h456l26 4 22 6 17 7 17 9 16 11 9 7 13 11 6 6v2h2l10 13 11 17 8 16 6 14 6 21 3 16 2 27-1 19-5 25-8 24-10 21-11 17-7 9-12 14-3 3h-2v2l-11 9-9 7-18 11-19 9-27 9-14 3-8 1-19 1h-441l-23-2-16-4-24-8-21-10-17-11-10-8-12-11-8-8-11-14-7-10-8-14-8-17-7-21-4-19-1-9v-42l4-23 8-24 10-21 9-14 8-11 11-12 10-10 17-13 18-12 16-8 18-7 21-5z" fill="#E71935"/>
<path transform="translate(423,814)" d="m0 0 25 1 22 4 17 5 16 6 16 8 15 9 10 8 13 11 10 10 11 14 9 13 5 9 7 14 8 21 5 23 1 9v41l-3 19-5 18-6 16-8 16-9 15-13 17-6 7h-2l-2 4-15 13-16 11-18 10-24 10-19 5-19 3-11 1h-21l-25-4-21-6-16-6-19-10-15-10-11-9-6-5v-2l-4-2-7-7-11-14-8-11-6-10-10-21-7-23-3-15-2-17v-31l3-20 6-23 9-21 9-16 9-13 14-17 10-10 14-11 15-10 14-8 25-10 23-6 13-2z" fill="#E71935"/>
</svg>
