<?xml version="1.0" encoding="UTF-8"?>
<svg version="1.1" viewBox="0 0 2000 2000" width="1280" height="1280" xmlns="http://www.w3.org/2000/svg">
<path transform="translate(406,1396)" d="m0 0h1187l22 2 24 5 26 8 21 9 17 9 17 11 12 9 14 12 14 14 9 11 13 17 14 24 10 23 8 24 5 24 2 25v29l-2 23-6 26-8 24-8 18-8 15-10 16-13 17-15 16-13 12-13 10-16 11-18 10-17 8-30 10-18 4-22 3-15 1h-1180l-24-2-19-3-24-7-21-8-16-8-18-10-21-16-14-12-13-13-9-11-10-13-12-20-8-15-9-23-7-23-4-21-1-11v-48l3-22 6-24 8-22 8-18 10-17 9-13 11-14 11-12 5-6 8-7 12-10 17-12 21-12 19-9 22-8 25-6 17-3z" fill="#E81B36"/>
<path transform="translate(431,123)" d="m0 0 1152 1 21 3 24 6 27 9 21 10 18 11 13 10 11 9 15 14 11 12 14 19 12 20 9 17 8 21 6 20 5 26 2 25-1 31-4 25-7 26-8 21-9 19-12 20-14 19-11 11-7 8-8 7-12 10-17 12-19 11-17 8-19 7-25 7-22 3-17 1h-1188l-28-2-19-4-30-10-20-9-16-9-12-8-13-10-10-9-8-7-10-10-7-8-12-16-8-13-9-16-9-20-8-24-5-23-3-22v-39l4-27 6-24 8-22 10-21 9-15 14-20 11-13 4-5 8-7 14-13 16-12 18-11 16-8 14-6 23-7 21-5 20-3z" fill="#E81B36"/>
<path transform="translate(828,816)" d="m0 0h471l20 3 22 6 19 8 14 8 17 12 16 13 14 14 11 15 9 15 10 21 7 21 4 20 2 20v15l-2 22-5 21-6 18-11 23-12 18-9 11-11 12-12 11-15 11-18 10-18 8-22 7-15 3-26 2h-436l-22-1-18-3-33-11-23-12-17-12-10-9-8-7-9-10-10-13-9-14-8-16-6-14-6-20-3-15-1-15v-20l1-18 4-22 7-20 7-16 9-16 12-17 15-16 13-11 18-13 17-10 16-7 21-6 15-3z" fill="#E81B36"/>
<path transform="translate(410,816)" d="m0 0h38l20 3 21 6 15 6 16 8 16 10 14 11 12 11v2h2l9 11 11 15 10 17 8 19 6 18 3 14 1 8v48l-3 18-6 21-9 21-11 19-13 17-11 12-13 12-17 12-18 10-19 8-16 5-19 4-20 2h-18l-19-2-22-5-15-5-20-9-15-9-11-8-11-9-17-17-10-13-9-14-10-19-8-22-5-23-2-24v-13l2-21 3-16 6-20 10-22 11-18 10-13 14-15 12-11 15-11 21-12 20-8 17-5z" fill="#E81B36"/>
</svg>
