<?xml version="1.0" encoding="UTF-8"?>
<svg version="1.1" viewBox="0 0 2000 2000" width="1280" height="1280" xmlns="http://www.w3.org/2000/svg">
<path transform="translate(408,1396)" d="m0 0h1185l22 2 24 5 26 8 21 9 17 9 17 11 12 9 14 12 14 14 9 11 13 17 14 24 10 23 8 24 5 24 2 25v29l-2 23-6 26-8 24-8 18-8 15-10 16-13 17-15 16-13 12-13 10-16 11-18 10-17 8-30 10-18 4-22 3-15 1h-1180l-24-2-19-3-24-7-21-8-16-8-18-10-21-16-14-12-13-13-9-11-10-13-12-20-8-15-9-23-7-23-4-21-1-11v-48l3-22 6-24 8-22 9-20 14-23 11-14 12-14 4-5 8-7 13-12 14-10 16-10 25-13 27-10 25-6 18-3z" fill="#E71B37"/>
<path transform="translate(427,123)" d="m0 0h1099l57 1 26 4 29 8 17 6 21 10 18 11 13 10 11 9 15 14 11 12 14 19 12 20 9 17 8 21 6 20 5 26 2 25-1 31-4 25-7 26-8 21-9 19-12 20-12 16-9 10-10 11-8 7-10 9-14 10-16 10-21 11-21 8-20 6-14 3-16 2-17 1h-1190l-26-2-19-4-30-10-26-12-21-13-14-11-10-9-8-7-10-10-7-8-12-16-8-13-9-16-9-20-8-24-5-23-3-22v-39l4-27 6-24 8-22 10-21 9-15 14-20 11-13 5-6h2l2-4 8-7 14-12 17-12 19-11 20-9 26-8 21-5 20-3z" fill="#E71B37"/>
<path transform="translate(779,786)" d="m0 0h571l18 2 21 5 20 7 18 8 18 11 13 10 13 12 11 11 13 17 10 16 8 16 7 16 5 17 3 15 2 20v29l-3 24-6 22-6 17-8 17-12 19-8 10-9 10-7 8-11 10-14 10-20 12-15 8-15 6-25 6-13 2-13 1h-562l-19-2-24-5-18-7-20-10-16-10-11-8-11-9-15-15-11-14-7-10-9-15-9-20-7-22-5-25-1-9v-34l4-24 5-19 6-16 8-16 9-16 12-16 9-10 8-9 8-7 12-10 19-12 23-11 22-7 17-4z" fill="#E71B37"/>
<path transform="translate(396,664)" d="m0 0h12l22 2 16 4 20 7 16 8 14 8 16 13 10 9 10 11 11 15 12 23 5 13 6 21 2 17v369l-2 18-8 26-6 13-9 17-12 16-11 13-11 10-13 10-22 12-12 5-23 7-27 4h-21l-24-3-27-8-23-11-11-7-10-8-13-11-13-15-11-16-11-20-6-17-5-19-2-16-1-17v-329l2-35 6-23 6-16 10-20 9-13 9-10 7-9 14-11 13-10 26-14 27-9 10-2z" fill="#E71B37"/>
</svg>
