<?xml version="1.0" encoding="UTF-8"?>
<svg version="1.1" viewBox="0 0 2000 2000" width="1280" height="1280" xmlns="http://www.w3.org/2000/svg">
<path transform="translate(891,215)" d="m0 0 10 1 8 3 14 11 15 15v2h2l7 8 28 28 7 8 66 66v2h2v2h2l7 8 9 12 4 11v12l-5 12-8 11-359 359-7 10-3 8v12l6 12 9 10 93 93 10 7 11 5 8 1 10-3 9-7 214-214 12-7 8-2 9 1 10 5 10 8 144 144 7 10 1 2v10l-4 11-8 10-218 218-5 10-1 3v11l5 8 9 10 106 106 10 8 9 4h5l11-8 204-204 6-7 6-5 6-7 6-5 6-7 6-5 6-7 6-5 6-7 6-5 6-7 6-5 6-7 100-100 13-10 10-3h7l10 4 10 8 144 144 9 13 2 5v13l-4 9-8 12-11 12-622 622-11 9-14 7h-15l-8-3-9-7-10-9-811-811-10-13-6-12v-13l6-12 10-10 6-7h2l2-4h2l2-4h2l2-4h2l2-4h2l2-4h2l2-4h2l2-4h2l2-4h2l2-4h2l2-4h2l2-4h2l2-4h2l2-4h2l2-4h2l2-4h2l2-4 6-5 2-3h2l2-4h2l2-4h2l2-4h2l2-4h2l2-4h2l2-4h2l2-4h2l2-4h2l2-4h2l2-4h2l2-4h2l2-4h2l2-4 6-5 6-7 4-4h2l2-4h2l2-4h2l2-4h2l2-4h2l2-4h2l2-4h2l2-4h2l2-4h2l2-4h2l2-4h2l2-4 6-5 5-6 8-7 383-383 6-7 6-5 6-7 6-5 2-3h2l2-4 8-7 8-6z" fill="#4FC3DE"/>
<path transform="translate(876,222)" d="m0 0 2 1-642 642-2-1 10-10 6-7h2l2-4h2l2-4h2l2-4h2l2-4h2l2-4h2l2-4h2l2-4h2l2-4h2l2-4h2l2-4h2l2-4h2l2-4h2l2-4h2l2-4h2l2-4h2l2-4 6-5 2-3h2l2-4h2l2-4h2l2-4h2l2-4h2l2-4h2l2-4h2l2-4h2l2-4h2l2-4h2l2-4h2l2-4h2l2-4h2l2-4 6-5 6-7 4-4h2l2-4h2l2-4h2l2-4h2l2-4h2l2-4h2l2-4h2l2-4h2l2-4h2l2-4h2l2-4h2l2-4 6-5 5-6 8-7 383-383 6-7 6-5 6-7 6-5 2-3h2l2-4 8-7z" fill="#B0E3EF"/>
<path transform="translate(919,228)" d="m0 0 4 2 15 15v2h2l7 8 28 28-1 2-42-42-7-8z" fill="#FEFEFE"/>
</svg>
