<?xml version="1.0" encoding="UTF-8"?>
<svg version="1.1" viewBox="0 0 2000 2000" width="1280" height="1280" xmlns="http://www.w3.org/2000/svg">
<path transform="translate(1023,193)" d="m0 0h159l8 2 6 4 5 5 10 12 9 13 13 18 12 17 13 18 10 14 26 36 12 17 26 36 10 14 39 54 12 17 26 36 10 13 7 2 1-37 1-278 3-6 6-5 6-2h131l12 1 6 5 1 3 1 37v596l-1 22-7 8-4 2-16 1h-121l-9-2-6-4-9-10-13-18-12-16-140-190-12-16-14-19-13-18-28-38-12-16-8-9-3-1-1 18v130l-9-3-22-8-28-8-32-7-37-5-40-2-1-1v-417l3-7 6-6z" fill="#FEFEFE"/>
<path transform="translate(411,193)" d="m0 0h489l12 1 6 5 2 5 1 7v32l-1 76-2 12-5 7-9 4-31 1h-241l-18 1-6 3-3 3-1 3v91l3 6 5 4 4 1 168 1 10 2 7 8 1 4v121l-4 8-6 3-17 1h-145l-19 1-5 3-2 3v107l41 1h117l-2 4-11 13-13 21-8 15-8 20-5 17-4 18-2 25v16l-3 1h-289l-9-1-8-6-3-6-1-5v-643l3-7 5-5z" fill="#FEFEFE"/>
<path transform="translate(979,659)" d="m0 0h50l32 3 30 5 26 6 33 11 29 13 21 12 13 10 14 12 9 10 9 11v3l-19 14-36 26-19 14-17 12-6 4-4-2-11-11-8-7-11-9-19-12-14-7-21-6-20-3-24-1-6-1-4 1-23 1-23 4-16 5-15 8-11 9-8 10-5 11-2 10 1 16 4 11 8 11 9 8 12 7 20 8 44 12 82 21 45 12 33 11 29 14 19 13 10 8 18 18 10 14 8 13 8 17 7 21 5 24 1 11v32l-2 20-5 22-10 26-13 22-11 14-11 12-7 7-11 9-14 10-15 9-27 13-36 12-32 7-39 5-42 2-22-1-9-1h-12l-40-5-29-6-24-6-35-12-18-8-17-8-17-10-16-11-21-18-11-14-10-14v-5l10-7 17-12 35-24 17-12 17-11 7-4 4 2 13 15 12 13 9 9 10 8 11 8 18 10 15 6 18 5 27 4 20 1h16l19-1 27-4 21-6 16-7 11-7 10-9 7-10 4-11 1-5v-18l-4-13-7-11-10-10-10-7-15-7-16-5-60-15-38-9-48-12-29-9-21-9-21-11-16-11-10-8-10-9-12-12-11-14-10-15-11-22-6-19-4-17-2-21v-16l2-21 6-24 9-22 8-14 9-14 10-12 7-8 15-14 16-12 19-12 17-9 28-11 19-6 28-6 31-4z" fill="#FEFEFE"/>
<path transform="translate(1309,1105)" d="m0 0h294l9 1 5 3 4 7v111l-1 12-4 8-7 6-4 1-269 1-15 1-7 4-3 6v98l3 7 7 3 172 1 10 2 6 7 1 2 1 10v103l-1 12-4 6-3 2-15 1-168 1-7 3-2 4-1 226-2 12-6 9-11 4-18 1h-149l-10-2-6-4-4-7-1-4-1-19v-221l1-183 2-2 24-6 32-11 32-15 33-22 10-9 11-9 9-10 9-11 8-11 11-19 7-14 8-22 6-26 2-14z" fill="#FEFEFE"/>
<path transform="translate(389,1105)" d="m0 0h195l9 2 6 4 6 7 12 21 12 22 13 23 12 22 13 23 13 24 13 23 16 29 14 25 5 5 5-5 9-16 12-22 3-5 5 1 21 12 26 12 24 9 31 10 34 8 1 4-4 5-10 17-13 21-16 26-15 24-13 21-11 18-4 11-1 6-1 26-1 244-4 9-7 6-7 2-17 1h-151l-11-2-5-5-3-5-1-4-1-44v-205l-2-15-5-12-11-19-13-21-14-23-15-24-12-20-8-13-13-21-17-28-16-26-11-18-16-26-17-28-11-18-13-21-17-28-13-21-5-12 1-7 5-6z" fill="#FEFEFE"/>
<path transform="translate(871,1105)" d="m0 0h151l10 3 4 5-1 8-10 18-12 19-10 16-3 3h-24l-22-2-17-3-16-5-14-6-12-8-11-9-10-9-10-11-9-11v-4l8-3z" fill="#FEFEFE"/>
<path transform="translate(1007,799)" d="m0 0h14l25 2 18 4 12 5 18 11 10 9 8 7 14 13 8 5 10 3 11-1 14-7 6-4v8l-3 8-5 4-3 1-12 1h-127l-10-2-7-6-2-5v-55z" fill="#FEFEFE"/>
</svg>
