<?xml version="1.0" encoding="UTF-8"?>
<svg version="1.1" viewBox="0 0 2000 2000" width="1280" height="1280" xmlns="http://www.w3.org/2000/svg">
<path transform="translate(1044,193)" d="m0 0h132l11 1 8 4 8 8 11 15 12 17 13 18 10 14 26 36 12 17 14 19 13 19 10 13 13 19 10 13 12 17 13 18 10 14 13 18 12 17 13 18 9 11 5 2h2l1-7 1-306 3-8 6-5 3-1 26-1h100l19 1 5 3 3 6v654l-6 7-6 3-15 1h-120l-10-2-9-7-14-18-10-14-112-152-12-16-70-95-13-18-14-19-10-13-7-3v148l-9-3-16-6-22-7-28-7-28-5-24-3-37-2-5-1v-416l3-8 7-6 2-1z" fill="#1C1853"/>
<path transform="translate(436,193)" d="m0 0h454l21 1 6 4 3 6v115l-2 11-4 6-4 4-8 2-283 1-8 2-6 5-1 2-1 18v62l1 13 4 7 7 3 166 1 10 1 6 4 3 3 1 3 1 17v99l-1 10-4 6-5 3-177 1-7 2-4 4-1 21v66l1 19 1 2 8 1h148l-2 5-9 10-15 24-8 16-8 20-7 26-2 17-1 12v18l-3 2h-287l-13-2-6-5-3-6-1-7v-639l3-9 5-5 3-1z" fill="#1C1853"/>
<path transform="translate(979,659)" d="m0 0h49l31 3 26 4 31 7 36 12 23 10 21 12 13 9 13 11 6 5 9 11 8 10-5 5-13 10-72 52-5 4h-5l-4-5-8-7-12-11-13-9-16-10-16-7-20-5-25-3h-15l-2-1-18 1-15 1-22 4-15 5-14 7-10 8-7 7-6 10-4 14v12l2 10 6 12 9 10 11 8 17 8 18 6 108 28 53 14 36 12 25 12 22 15 13 11 13 13 11 15 11 19 9 22 6 24 2 12 1 12v27l-2 20-6 26-10 25-11 19-9 12-12 14-7 7-11 9-12 9-16 10-16 8-15 7-26 9-22 6-26 5-34 4-17 1h-45l-10-1h-11l-44-6-24-5-24-6-38-13-34-16-14-8-19-13-11-10-8-7-8-9-11-15-3-4 1-5 9-7 19-13 23-16 35-24 13-8 6-1 12 14 11 12 13 13 14 11 14 9 14 7 17 6 16 4 22 3 20 1h18l19-1 27-4 21-6 12-5 16-10 10-10 6-10 3-8 2-16-2-14-8-16-8-9-14-10-14-7-23-7-91-22-48-12-35-11-28-13-16-10-18-13-27-27-13-18-8-14-9-20-7-25-3-29v-11l2-21 5-22 8-21 7-14 11-17 12-15 7-8 12-11 10-8 19-13 26-14 25-10 15-5 29-7 36-5z" fill="#1C1853"/>
<path transform="translate(1310,1105)" d="m0 0h282l19 1 5 3 4 5 1 3v81l-1 40-3 7-5 6-8 3-279 1-9 3-4 4-1 3-1 16v75l1 10 4 6 4 2 164 1 17 1 6 4 4 7v124l-7 8-17 1-167 1-6 3-2 3-1 31-1 203-2 7-6 7-6 3-5 1-17 1h-148l-11-2-8-7-2-4-1-6v-421l7-3 20-5 34-12 31-15 30-20 10-9 11-9 7-7 9-11 11-14 13-23 9-21 6-18 5-25 2-20 1-21z" fill="#1D1953"/>
<path transform="translate(396,1105)" d="m0 0h183l14 2 6 4 7 9 12 21 13 24 13 23 13 24 12 21 13 24 13 23 13 24 13 23 6 8 4-2 6-9 13-24 7-13 6 2 18 10 27 13 33 12 19 6 37 9 2 1-1 4-6 9-14 23-15 24-16 26-12 19-11 18-8 14-3 8-1 5-1 16-1 254-3 9-5 6-11 4-18 1h-147l-10-1-6-4-4-5-2-7-1-252-2-12-4-10-16-27-13-21-16-26-14-23-24-39-17-28-13-21-14-23-32-52-17-28-11-18-16-26-15-25-4-8v-9l3-5 4-3 3-1z" fill="#1C1853"/>
<path transform="translate(877,1105)" d="m0 0h142l12 3 4 3v9l-9 17-12 19-8 13-5 7-2 1h-22l-14-1-25-4-17-5-16-8-11-7-11-9-13-12-8-10-6-8v-4l8-3z" fill="#231F58"/>
<path transform="translate(1007,799)" d="m0 0h12l25 2 16 3 16 6 20 13 10 9 8 7 13 12 12 6 3 1h9l10-3 11-7 3-1-1 10-5 8-7 2-14 1h-121l-11-2-6-4-3-5-1-4v-53z" fill="#221E57"/>
<path transform="translate(1173,847)" d="m0 0h2l-1 10h-1l-1-6-4 1z" fill="#FEFEFE"/>
</svg>
